HIERARCHY
ROOT Hips
{
	OFFSET 0.00000 0.00000 0.00000
	CHANNELS 6 Xposition Yposition Zposition Zrotation Yrotation Xrotation 
	JOINT LHipJoint
	{
		OFFSET 0 0 0
		CHANNELS 3 Zrotation Yrotation Xrotation
		JOINT LeftHip
		{
			OFFSET 1.53794 -1.55850 0.93568
			CHANNELS 3 Zrotation Yrotation Xrotation
			JOINT LeftKnee
			{
				OFFSET 2.28545 -6.27922 0.00000
				CHANNELS 3 Zrotation Yrotation Xrotation
				JOINT LeftAnkle
				{
					OFFSET 2.37329 -6.52057 0.00000
					CHANNELS 3 Zrotation Yrotation Xrotation
					JOINT LeftToe
					{
						OFFSET 0.14846 -0.40788 2.09160
						CHANNELS 3 Zrotation Yrotation Xrotation
						End Site
						{
							OFFSET 0.00000 -0.00000 1.07536
						}
					}
				}
			}
		}
	}
	JOINT RHipJoint
	{
		OFFSET 0 0 0
		CHANNELS 3 Zrotation Yrotation Xrotation
		JOINT RightHip
		{
			OFFSET -1.78290 -1.55850 0.93568
			CHANNELS 3 Zrotation Yrotation Xrotation
			JOINT RightKnee
			{
				OFFSET -2.24144 -6.15831 0.00000
				CHANNELS 3 Zrotation Yrotation Xrotation
				JOINT RightAnkle
				{
					OFFSET -2.35091 -6.45907 0.00000
					CHANNELS 3 Zrotation Yrotation Xrotation
					JOINT RightToe
					{
						OFFSET -0.14428 -0.39641 2.07944
						CHANNELS 3 Zrotation Yrotation Xrotation
						End Site
						{
							OFFSET -0.00000 -0.00000 1.06864
						}
					}
				}
			}
		}
	}
	JOINT lowerback
	{
		OFFSET 0 0 0
		CHANNELS 3 Zrotation Yrotation Xrotation
		JOINT Chest
		{
			OFFSET -0.08841 2.11430 -0.15818
			CHANNELS 3 Zrotation Yrotation Xrotation
			JOINT Chest2
			{
				OFFSET -0.00033 2.12605 -0.08097
				CHANNELS 3 Zrotation Yrotation Xrotation
				JOINT lowerneck
				{
					OFFSET 0 0 0
					CHANNELS 3 Zrotation Yrotation Xrotation
					JOINT Neck
					{
						OFFSET 0.04431 1.59447 0.43193
						CHANNELS 3 Zrotation Yrotation Xrotation
						JOINT Head
						{
							OFFSET 0.00455 1.62017 -0.58852
							CHANNELS 3 Zrotation Yrotation Xrotation
							End Site
							{
								OFFSET -0.00920 1.72955 -0.25850
							}
						}
					}
				}
				JOINT LeftCollar
				{
					OFFSET 0 0 0
					CHANNELS 3 Zrotation Yrotation Xrotation
					JOINT LeftShoulder
					{
						OFFSET 2.86490 1.49927 -0.33774
CHANNELS 3 Zrotation Xrotation Yrotation
						JOINT LeftElbow
						{
OFFSET 0 -4.874080 0.000000
CHANNELS 3 Zrotation Xrotation Yrotation
							JOINT LeftWrist
							{
OFFSET 0 -2.767290 0.000000
CHANNELS 3 Zrotation Xrotation Yrotation
								JOINT lhand
								{
									OFFSET 0 0 0
CHANNELS 3 Zrotation Xrotation Yrotation
									JOINT LFingers
									{
OFFSET 0 -0.989220 0.000000
CHANNELS 3 Zrotation Xrotation Yrotation
										End Site
										{
OFFSET 0 -0.797530 0.000000
										}
									}
								}
								JOINT LThumb
								{
OFFSET 0 0.000000 0.000000
CHANNELS 3 Zrotation Xrotation Yrotation
									End Site
									{
OFFSET 0 -0.809720 0.809720
									}
								}
							}
						}
					}
				}
				JOINT RightCollar
				{
					OFFSET 0 0 0
					CHANNELS 3 Zrotation Yrotation Xrotation
					JOINT RightShoulder
					{
						OFFSET -2.94414 1.45463 -0.25291
CHANNELS 3 Zrotation Xrotation Yrotation
						JOINT RightElbow
						{
OFFSET 0 -4.714040 0.000000
CHANNELS 3 Zrotation Xrotation Yrotation
							JOINT RightWrist
							{
OFFSET 0 -2.834680 0.000000
CHANNELS 3 Zrotation Xrotation Yrotation
								JOINT rhand
								{
									OFFSET 0 0 0
CHANNELS 3 Zrotation Xrotation Yrotation
									JOINT RFingers
									{
OFFSET 0 -0.868200 0.000000
CHANNELS 3 Zrotation Xrotation Yrotation
										End Site
										{
OFFSET 0 -0.699960 0.000000
										}
									}
								}
								JOINT RThumb
								{
OFFSET 0 0.000000 0.000000
CHANNELS 3 Zrotation Xrotation Yrotation
									End Site
									{
OFFSET 0 -0.710650 0.710650
									}
								}
							}
						}
					}
				}
			}
		}
	}
}
MOTION
Frames: 5
Frame Time: 0.008333333333333333
1.186500 15.777700 33.745000 176.454000 1.295600 -176.866000 0.000000 0.000000 0.000000 -27.563300 0.510600 -4.007600 9.145800 16.900700 56.593100 1.234200 17.754500 21.920000 0.002400 0.315500 0.866900 0.000000 0.000000 0.000000 16.360500 11.526000 -29.261100 -3.141500 -10.920600 32.012600 0.356000 -13.508200 4.125100 -1.247500 7.081600 -19.957200 -4.914400 -4.167100 -1.492200 0.288700 -5.368600 2.434300 2.759100 -2.793200 3.835100 5.318200 2.188000 -28.044800 -6.065100 6.958900 40.646500 -1.932300 3.520000 21.871500 -0.000000 0.000000 0.000000 18.079900 12.021200 -58.787400 113.077000 -57.888900 79.843600 14.252100 21.504900 -0.570700 0.000000 0.000000 0.000000 -7.125000 0.000000 0.000000 -9.730700 30.488100 -3.493300 -0.000000 0.000000 0.000000 -25.131100 45.230900 36.246700 -63.767000 -57.232900 -37.492600 -13.950600 3.899100 1.694500 0.000000 0.000000 0.000000 7.125000 0.000000 -0.000000 10.092700 31.623300 3.347800
1.215160 15.694854 33.530466 176.728618 1.557593 -177.557152 0.000000 0.000000 0.000000 -26.977572 0.961047 -4.833941 10.093692 17.459243 59.797004 1.055053 18.437450 21.000768 0.000465 -0.075600 -0.207611 0.000000 0.000000 0.000000 17.066949 11.613546 -28.555111 -3.496476 -11.456842 33.838439 0.451195 -13.224643 1.462414 -1.146315 6.797951 -19.118326 -4.878368 -3.884741 -0.754879 0.347125 -5.028000 2.447109 2.874476 -2.613869 3.404098 5.535590 2.223479 -28.268733 -6.260742 6.939548 40.580702 -2.079285 3.510785 21.918222 0.000000 0.000000 0.000000 17.716815 12.687378 -58.440257 111.804082 -58.124445 78.763929 14.838289 22.196605 -1.185457 0.000000 0.000000 0.000000 -7.125000 0.000000 0.000000 -9.334071 31.124881 -3.203661 0.000000 0.000000 0.000000 -24.991119 44.781006 36.732442 -63.571911 -57.188943 -37.328567 -14.197019 4.120637 1.698186 0.000000 0.000000 0.000000 7.125000 0.000000 0.000000 9.897979 31.632976 3.279146
1.242892 15.613441 33.320148 176.978786 1.870338 -178.181701 0.000000 0.000000 0.000000 -26.374139 1.407531 -5.814986 11.071175 17.964419 63.005797 0.865959 18.835948 19.895891 0.008731 -0.569386 -1.564635 0.000000 0.000000 0.000000 17.853659 11.439992 -27.845076 -3.792521 -11.877330 35.301673 0.521013 -13.314905 -0.586262 -1.118056 6.716977 -18.879466 -4.816959 -3.570346 -0.076320 0.363060 -4.633528 2.547767 2.919287 -2.407644 3.087163 4.686832 1.884381 -28.222968 -5.605640 6.602526 40.758890 -1.668072 3.354959 21.897245 0.000000 0.000000 0.000000 17.313009 13.257193 -57.837917 110.233645 -58.393206 77.428132 15.259910 22.934257 -1.412400 0.000000 0.000000 0.000000 -7.125000 0.000000 0.000000 -9.024531 31.365419 -3.042001 0.000000 0.000000 0.000000 -24.523098 43.895244 37.064828 -62.978892 -57.052501 -36.830592 -14.582207 4.867324 2.178039 0.000000 0.000000 0.000000 7.125000 0.000000 0.000000 9.647448 32.131044 3.077286
1.271456 15.544319 33.125667 177.596750 2.149959 -178.815344 0.000000 0.000000 0.000000 -25.299513 1.702407 -7.030942 12.056995 18.407972 66.161830 0.666304 19.022784 18.589926 0.009000 -0.612970 -1.684285 0.000000 0.000000 0.000000 18.931738 11.471827 -26.950470 -4.081934 -12.266553 36.684595 0.576924 -13.524293 -2.611513 -1.043291 6.494527 -18.226521 -4.390230 -3.224526 0.432532 0.437814 -4.179450 2.860750 2.798493 -2.168944 3.058244 4.724045 1.780864 -28.323068 -5.606378 6.353612 40.645301 -1.741892 3.257973 21.819504 0.000000 0.000000 0.000000 16.910384 13.416315 -57.180782 108.091499 -58.721564 75.600023 15.568881 23.342511 -1.612961 0.000000 0.000000 0.000000 -7.125000 0.000000 0.000000 -8.800475 31.577565 -2.919471 0.000000 0.000000 0.000000 -23.507214 42.401272 36.915691 -61.989090 -56.815774 -36.001277 -14.855144 5.212150 2.362494 0.000000 0.000000 0.000000 7.125000 0.000000 0.000000 9.451208 32.326440 2.967627
1.298355 15.466302 32.932367 178.133539 2.385241 -179.439088 0.000000 0.000000 0.000000 -24.306983 1.941953 -8.185598 13.044920 18.790905 69.257674 0.471122 19.273779 17.304762 0.011893 -0.701275 -1.927106 0.000000 0.000000 0.000000 19.903615 11.439784 -26.066982 -4.365897 -12.629820 38.001627 0.608165 -13.695002 -4.532666 -0.990180 6.332965 -17.753644 -4.035773 -2.920760 0.993306 0.516189 -3.779213 3.123691 2.718200 -1.955723 2.962067 4.709244 1.678921 -28.403846 -5.594874 6.140788 40.545183 -1.789929 3.169552 21.747941 0.000000 0.000000 0.000000 16.471384 13.670081 -56.460944 105.934102 -59.013626 73.753229 15.890055 23.718029 -1.871435 0.000000 0.000000 0.000000 -7.125000 0.000000 0.000000 -8.571922 31.850462 -2.785443 0.000000 0.000000 0.000000 -22.646435 40.907989 36.880614 -60.986932 -56.565859 -35.163787 -15.116664 5.637100 2.581450 0.000000 0.000000 0.000000 7.125000 0.000000 0.000000 9.267589 32.557562 2.856519
